<?xml version="1.0" encoding="UTF-8"?>
<svg width="39px" height="40px" viewBox="0 0 39 40" version="1.1" xmlns="http://www.w3.org/2000/svg" xmlns:xlink="http://www.w3.org/1999/xlink">
    <!-- Generator: Sketch 55 (78076) - https://sketchapp.com -->
    <title>编组 2</title>
    <desc>Created with Sketch.</desc>
    <g id="页面1" stroke="none" stroke-width="1" fill="none" fill-rule="evenodd">
        <g id="办公管理-部门管理" transform="translate(-20.000000, -16.000000)">
            <g id="编组" transform="translate(20.000000, 16.000000)">
                <rect id="logo" fill="#D8D8D8" opacity="0" x="0" y="0" width="40" height="40"></rect>
                <path d="M20.3460847,22.6552503 C20.3182542,22.6564827 20.2908344,22.6591528 20.2639281,22.663466 L20.3093196,22.6294737 L20.3460847,22.6552503 Z M32,21.8536585 L32.7804878,22.3609656 L32.7804878,23.4146341 L32,22.8683227 L32,21.8536585 Z M32,24.4292983 L32,23.4146341 L32.7804878,23.9219412 L32.7804878,24.9756098 L32,24.4292983 Z M31.1533079,33.1879192 C31.888408,32.5969518 32.5226912,31.8630879 33.0575409,30.9929373 L33.0575409,22.0087198 L30.0248448,20.2398506 L30.0248448,33.8988727 C30.4261758,33.6911658 30.8027728,33.4540506 31.1533079,33.1879192 Z M25.3173822,34.9367347 C26.7935584,34.9367347 28.1081619,34.7002917 29.2501816,34.2504843 L29.2501816,20.2238861 L24.508689,22.9524192 L24.508689,25.034137 C24.508689,25.0876882 24.4980651,25.1386066 24.4788645,25.1850438 L24.4838998,25.1886288 L24.4838998,34.9143844 C24.7563046,34.9286685 25.0336341,34.9367347 25.3173822,34.9367347 Z M17.9071193,26.6560766 L17.9071193,27.8348745 L18.8774404,27.2017832 L18.8774404,25.9793488 L17.9071193,26.6560766 Z M17.9071193,24.9473124 L17.9071193,26.1261664 L18.8774404,25.2966274 L18.8774404,24.2706407 L17.9071193,24.9473124 Z M36.3960629,27.4218135 C38.2369395,27.4218135 39.4936093,29.3172225 38.7852351,31.0373019 C37.8476159,33.314123 36.4599726,35.1919991 34.6081954,36.6854382 C32.0403527,38.7650274 28.9589635,39.80485 25.3640833,39.80485 C22.2527589,39.80485 19.581056,39.2412183 17.3564997,38.1313759 L17.3166046,38.1441475 L17.3166046,38.1117143 C15.5861175,37.2412277 14.1277032,36.0385669 12.9452904,34.5113502 C10.5641969,31.4864932 9.39700066,27.4218135 9.39700066,22.3173673 C9.39700066,17.3074758 10.6108427,13.1955747 13.0852831,10.0761069 C15.8865209,6.48408916 19.9483017,4.73538569 25.270681,4.73538569 C29.1924138,4.73538569 32.4605522,5.77520831 34.9816938,7.85479753 C36.4646206,9.06731707 37.5817957,10.5621566 38.3437324,12.317582 C39.0937724,14.0454475 37.8402012,15.9841008 35.9758081,15.9841008 L35.9004444,15.9841008 C34.8698656,15.9841008 33.931029,15.36703 33.5286468,14.4065819 C32.9316028,12.9814261 32.0684066,11.8911332 30.9198576,11.1159855 C29.4258641,10.0761069 27.5116712,9.60355701 25.1773341,9.60355701 C21.6757455,9.60355701 19.0612569,10.7850998 17.2871674,13.2427961 C15.6530705,15.4169401 14.859428,18.4417972 14.859428,22.3173673 C14.859428,26.2874921 15.6530705,29.3596266 17.2404663,31.4864932 C17.2653661,31.5192625 17.2912067,31.5510235 17.3166046,31.5832886 L17.3166046,24.4293336 L19.9512897,22.4337122 C19.9271645,22.4847987 19.9132759,22.5417108 19.9132759,22.6020959 L19.9132759,33.7515509 C20.1622194,33.8834683 20.4205143,34.0044626 20.6879391,34.1145898 L20.6879391,22.6020959 C20.6879391,22.5613164 20.6817418,22.5219932 20.6703432,22.4849667 L23.7340258,24.6569821 L23.7340258,22.4962259 L29.6289919,19.1037927 L33.8322041,21.5554394 L33.8322041,29.4749632 C33.8858219,29.3474711 33.9383884,29.2186346 33.9888521,29.0869413 C34.3739151,28.0822406 35.3315096,27.4218135 36.3960629,27.4218135 Z M8.04877507,8.03863774 C8.64330081,7.4013173 8.96340921,6.67303585 8.96340921,5.85363156 C8.96340921,4.98874677 8.64330081,4.26041137 8.04877507,3.66862538 C7.40855827,3.03130493 6.67685095,2.75820614 5.85365312,2.75820614 C4.98476423,2.75820614 4.25305691,3.03130493 3.65853117,3.66862538 C3.01831436,4.26041137 2.74389702,4.98874677 2.74389702,5.85363156 C2.74389702,6.67303585 3.01831436,7.4013173 3.65853117,8.03863774 C4.25305691,8.63042374 4.98476423,8.94905699 5.85365312,8.94905699 C6.67685095,8.94905699 7.40855827,8.63042374 8.04877507,8.03863774 Z M11.7073117,5.85363156 C11.7073117,7.4467978 11.1128401,8.81250759 9.96953388,9.95054513 C8.82622764,11.0884748 7.45430352,11.6803147 5.85365312,11.6803147 C4.20731165,11.6803147 2.83533333,11.0884748 1.73777236,9.95054513 C0.548775068,8.81250759 -5.42005408e-06,7.4467978 -5.42005408e-06,5.85363156 C-5.42005408e-06,4.21487692 0.548775068,2.84922109 1.73777236,1.75671799 C2.83533333,0.573199955 4.20731165,0.0269484096 5.85365312,0.0269484096 C7.45430352,0.0269484096 8.82622764,0.573199955 9.96953388,1.75671799 C11.1128401,2.84922109 11.7073117,4.21487692 11.7073117,5.85363156 Z" id="形状结合" fill="#B79C7E"></path>
            </g>
        </g>
    </g>
</svg>